<?xml version="1.0" encoding="utf-8"?>
<!-- Generator: Adobe Illustrator 18.0.0, SVG Export Plug-In . SVG Version: 6.00 Build 0)  -->
<!DOCTYPE svg PUBLIC "-//W3C//DTD SVG 1.1//EN" "http://www.w3.org/Graphics/SVG/1.1/DTD/svg11.dtd">
<svg version="1.1" id="Calque_1" xmlns="http://www.w3.org/2000/svg" xmlns:xlink="http://www.w3.org/1999/xlink" x="0px" y="0px"
	 viewBox="0 0 353 340.2" enable-background="new 0 0 353 340.2" xml:space="preserve">
<rect x="-340.2" y="0" width="340.2" height="340.2"/>
<g>
	<text transform="matrix(1 0 0 1 80.3591 267.1754)" font-family="'MyriadPro-Regular'" font-size="20.7228">La beauté vient à vous</text>
	<text transform="matrix(1 0 0 1 80.3591 267.1754)" font-family="'MyriadPro-Regular'" font-size="20.7228">La beauté vient à vous</text>
</g>
<text transform="matrix(1 0 0 1 5.0549 211.652)" font-family="'QardoosPersonalUse-Regular'" font-size="61.3486" letter-spacing="-1">Escale Relax</text>
<line fill="none" stroke="#000000" stroke-miterlimit="10" x1="29.7" y1="231" x2="323.3" y2="231"/>
<g>
	<g>
		<path stroke="#000000" stroke-miterlimit="10" d="M158.5,94.4c-2.6-2-5.6-3.2-8.7-3.8c-3.3-0.7-6.6-1.1-9.8-1.5
			c-4.3-0.6-8.4-1.9-11.7-4.8c-0.2-0.2-0.3-0.5-0.4-0.9c5.4,3.9,11.8,3.7,18.2,4.3c-0.9-7.1,4-11.9,6.9-17.5
			c-0.2,0.9-0.2,1.8-0.5,2.6c-0.8,2.2-1.8,4.3-2.7,6.5c-1,2.4-1.9,4.7-2.8,7.1c-0.4,0.9-0.2,1.6,1,1.8c4.1,0.9,7.7,2.7,10.9,5.6
			c3-4.9,5.9-9.7,8.9-14.8c-2.5-1-4.8-2-7.2-2.9c-2.5-1-4.6-2.4-6.3-4.4c-0.4-0.5-0.7-1-0.9-1.7c4.2,3.9,10.4,4.2,14.8,8.7
			c2.5-5.7,5-11.3,7.5-16.9c0.1,0,0.2,0.1,0.3,0.1c-1.7,4.5-3,9.1-5,13.3c-3,6.3-6.6,12.3-9.8,18.5c-3.5,6.7-6.1,13.6-6.8,21.2
			c-0.6,6.6,1.1,12.4,6.5,16.7c-0.1,0.1-0.2,0.2-0.3,0.3c-1.2-1.1-2.6-2-3.7-3.2c-3.5-3.9-4.5-8.7-4.3-13.8
			c0.3-6.7,2.5-12.8,5.3-18.8C158,95.5,158.2,95,158.5,94.4z"/>
		<path stroke="#000000" stroke-miterlimit="10" d="M175.6,163.2c-1.5-3.2-3.9-5.9-6.6-8.1c-4.4-3.5-6.9-7.8-5.9-13.6
			c0.3-1.7,0.9-3.4,1.3-5.1l-0.3-0.3c-0.2,0.4-0.3,0.8-0.6,1.1c-3.4,3.5-7.3,6.3-12,7.7c-6.6,1.9-12.9,0.8-19.1-1.9
			c-4.6-2-9.3-4-13.9-6c-1.2-0.5-2.5-0.8-3.7-1.2c5.8,3.1,11.5,6.1,17.4,8.8c2.8,1.2,5.9,2,9,2.5c2.3,0.4,4.7,0.1,7.2,0.1
			c-0.7,4.9,2.9,8.8,3,13.5c2.4-0.6,4.5-1.2,6.7-1.6c3.1-0.6,6-1.4,8.1-3.9c4,2.7,7.6,5.8,10.2,9.8
			C176,164.4,175.8,163.8,175.6,163.2z M160.3,156.9c-3,0.7-6,1.1-8.2,3.1c-0.4-2.2-0.7-4.4-1.2-6.5c-0.5-1.8-1.3-3.6-2-5.4
			c-0.2-0.7-0.1-1.1,0.7-1.2c4.8-1.1,8.7-3.6,12.1-7.1c0.1-0.1,0.2-0.2,0.7-0.5c-2.4,6.1-1.2,11.2,3.6,15.9
			C163.8,155.8,162.1,156.5,160.3,156.9z"/>
		<path stroke="#000000" stroke-miterlimit="10" d="M133.8,120.1c-0.6-1.5-1.2-3-1.8-4.5c-1.3-3.6-2-7.2-1.8-11.2
			c-5.8,1.5-11.1,4.7-17.2,4.5c0-0.2,0-0.3,0.1-0.3c5.4-1.7,10.5-4.2,16.2-4.6c1.1-0.1,0.9-0.8,0.9-1.4c-0.5-4.9-1-9.9-1.5-14.8
			c-0.1-0.9-0.3-1.7-0.4-2.5c0.2,0,0.3-0.1,0.5-0.1c0.8,3.4,1.7,6.9,2.3,10.3c0.5,2.8,0.7,5.6,0.7,8.5c0.3,14.4,9,25.8,22.8,29.7
			c2.6,0.8,5.3,1.1,8.1,1.7c-5.6,0.2-10.9-0.8-15.8-3.3c-5.1-2.5-9.1-6.2-12.2-11C134.5,120.7,134.1,120.4,133.8,120.1L133.8,120.1z
			"/>
		<path stroke="#000000" stroke-miterlimit="10" d="M133.8,120c-4.9,4.3-9.7,8.7-14.7,12.8c-1.7,1.4-3.8,2.2-6.1,3.4
			c3.5-3.1,6.7-5.8,10-8.7c-4.3-3.5-6.3-8.1-7.9-12.9c-0.6-1.8-1.7-3.5-2.7-5.6c2.3,1.8,3.6,3.9,4.6,6.2c1.4,3.3,3,6.5,4.6,9.8
			c0.3,0.7,0.9,1.3,1.4,2c2.2-1.7,4.2-3.3,6.3-4.7C130.7,121.3,132.3,120.8,133.8,120C133.8,120.1,133.8,120,133.8,120z"/>
		<path stroke="#000000" stroke-miterlimit="10" d="M160.7,130.7c-2.9-3.8-4.2-7.9-4-12.6c0.3-5.4,2.3-10.1,5.5-14.3
			c2.9-3.9,6-7.7,7.1-12.6c0.2,0.1,0.3,0.1,0.5,0.2c-0.7,2-1.1,4.1-2,5.9c-1.5,2.8-3.4,5.5-5.1,8.2c-3.7,5.7-5.9,11.8-4.3,18.7
			C158.9,126.3,159.9,128.4,160.7,130.7z"/>
	</g>
	<g>
		<path stroke="#000000" stroke-miterlimit="10" d="M194.5,94.4c2.6-2,5.6-3.2,8.7-3.8c3.3-0.7,6.6-1.1,9.8-1.5
			c4.3-0.6,8.4-1.9,11.7-4.8c0.2-0.2,0.3-0.5,0.4-0.9c-5.4,3.9-11.8,3.7-18.2,4.3c0.9-7.1-4-11.9-6.9-17.5c0.2,0.9,0.2,1.8,0.5,2.6
			c0.8,2.2,1.8,4.3,2.7,6.5c1,2.4,1.9,4.7,2.8,7.1c0.4,0.9,0.2,1.6-1,1.8c-4.1,0.9-7.7,2.7-10.9,5.6c-3-4.9-5.9-9.7-8.9-14.8
			c2.5-1,4.8-2,7.2-2.9c2.5-1,4.6-2.4,6.3-4.4c0.4-0.5,0.7-1,0.9-1.7c-4.2,3.9-10.4,4.2-14.8,8.7c-2.5-5.7-5-11.3-7.5-16.9
			c-0.1,0-0.2,0.1-0.3,0.1c1.7,4.5,3,9.1,5,13.3c3,6.3,6.6,12.3,9.8,18.5c3.5,6.7,6.1,13.6,6.8,21.2c0.6,6.6-1.1,12.4-6.5,16.7
			c0.1,0.1,0.2,0.2,0.3,0.3c1.2-1.1,2.6-2,3.7-3.2c3.5-3.9,4.5-8.7,4.3-13.8c-0.3-6.7-2.5-12.8-5.3-18.8
			C195,95.5,194.7,95,194.5,94.4z"/>
		<path stroke="#000000" stroke-miterlimit="10" d="M176.7,165c2.7-4.1,6.2-7.2,10.2-9.8c2.1,2.6,5,3.4,8.1,3.9
			c2.2,0.4,4.4,1,6.7,1.6c0.1-4.7,3.7-8.5,3-13.5c2.5,0,4.9,0.3,7.2-0.1c3.1-0.5,6.2-1.3,9-2.5c5.9-2.6,11.7-5.7,17.4-8.8
			c-1.2,0.4-2.5,0.7-3.7,1.2c-4.6,2-9.3,4-13.9,6c-6.2,2.7-12.5,3.8-19.1,1.9c-4.7-1.4-8.6-4.2-12-7.7c-0.3-0.3-0.4-0.7-0.6-1.1
			l-0.3,0.3c0.5,1.7,1.1,3.4,1.3,5.1c0.9,5.8-1.6,10.1-5.9,13.6c-2.8,2.2-5.1,4.8-6.6,8.1C177.1,163.8,176.9,164.4,176.7,165z
			 M187,155.1c4.8-4.7,6-9.8,3.6-15.9c0.4,0.3,0.6,0.4,0.7,0.5c3.4,3.5,7.3,6,12.1,7.1c0.8,0.2,0.9,0.6,0.7,1.2
			c-0.7,1.8-1.5,3.5-2,5.4c-0.6,2.1-0.8,4.3-1.2,6.5c-2.2-2-5.2-2.4-8.2-3.1C190.9,156.5,189.2,155.8,187,155.1z"/>
		<path stroke="#000000" stroke-miterlimit="10" d="M219.1,120.1c0.6-1.5,1.2-3,1.8-4.5c1.3-3.6,2-7.2,1.8-11.2
			c5.8,1.5,11.1,4.7,17.2,4.5c0-0.2,0-0.3-0.1-0.3c-5.4-1.7-10.5-4.2-16.2-4.6c-1.1-0.1-0.9-0.8-0.9-1.4c0.5-4.9,1-9.9,1.5-14.8
			c0.1-0.9,0.3-1.7,0.4-2.5c-0.2,0-0.3-0.1-0.5-0.1c-0.8,3.4-1.7,6.9-2.3,10.3c-0.5,2.8-0.7,5.6-0.7,8.5c-0.3,14.4-9,25.8-22.8,29.7
			c-2.6,0.8-5.3,1.1-8.1,1.7c5.6,0.2,10.9-0.8,15.8-3.3c5.1-2.5,9.1-6.2,12.2-11C218.5,120.7,218.9,120.4,219.1,120.1L219.1,120.1z"
			/>
		<path stroke="#000000" stroke-miterlimit="10" d="M219.2,120c4.9,4.3,9.7,8.7,14.7,12.8c1.7,1.4,3.8,2.2,6.1,3.4
			c-3.5-3.1-6.7-5.8-10-8.7c4.3-3.5,6.3-8.1,7.9-12.9c0.6-1.8,1.7-3.5,2.7-5.6c-2.3,1.8-3.6,3.9-4.6,6.2c-1.4,3.3-3,6.5-4.6,9.8
			c-0.3,0.7-0.9,1.3-1.4,2c-2.2-1.7-4.2-3.3-6.3-4.7C222.3,121.3,220.7,120.8,219.2,120C219.1,120.1,219.2,120,219.2,120z"/>
		<path stroke="#000000" stroke-miterlimit="10" d="M192.2,130.7c2.9-3.8,4.2-7.9,4-12.6c-0.3-5.4-2.3-10.1-5.5-14.3
			c-2.9-3.9-6-7.7-7.1-12.6c-0.2,0.1-0.3,0.1-0.5,0.2c0.7,2,1.1,4.1,2,5.9c1.5,2.8,3.4,5.5,5.1,8.2c3.7,5.7,5.9,11.8,4.3,18.7
			C194.1,126.3,193.1,128.4,192.2,130.7z"/>
	</g>
</g>
</svg>
